M48
; CJ2 Voice Emergency Checklist proto drill - DEMO ONLY
METRIC,TZ
FMAT,2
T01C2.700
T02C1.000
T03C0.900
T04C0.800
T05C0.700
%
G90
M71
T01
X4.000Y4.000
X96.000Y4.000
X4.000Y76.000
X96.000Y76.000
T02
X33.000Y20.000
X33.000Y22.540
X33.000Y25.080
X33.000Y27.620
X33.000Y30.160
X33.000Y32.700
X33.000Y35.240
X33.000Y37.780
X33.000Y40.320
X33.000Y42.860
X33.000Y45.400
X33.000Y47.940
X33.000Y50.480
X33.000Y53.020
X33.000Y55.560
X33.000Y58.100
X33.000Y60.640
X33.000Y63.180
X33.000Y65.720
X33.000Y68.260
X33.000Y70.800
X33.000Y73.340
X55.860Y20.000
X55.860Y22.540
X55.860Y25.080
X55.860Y27.620
X55.860Y30.160
X55.860Y32.700
X55.860Y35.240
X55.860Y37.780
X55.860Y40.320
X55.860Y42.860
X55.860Y45.400
X55.860Y47.940
X55.860Y50.480
X55.860Y53.020
X55.860Y55.560
X55.860Y58.100
X55.860Y60.640
X55.860Y63.180
X55.860Y65.720
X55.860Y68.260
X55.860Y70.800
X55.860Y73.340
X6.000Y60.000
X6.000Y62.540
X6.000Y65.080
X94.000Y14.000
X94.000Y16.540
X94.000Y19.080
X70.000Y72.000
X72.540Y72.000
X75.080Y72.000
X77.620Y72.000
X6.000Y12.000
X6.000Y14.540
X60.000Y4.000
X62.540Y4.000
X65.080Y4.000
X67.620Y4.000
X70.160Y4.000
X72.700Y4.000
X75.240Y4.000
X77.780Y4.000
X80.320Y4.000
X90.000Y50.000
X90.000Y52.540
T03
X12.920Y59.460
X18.000Y59.460
X23.080Y59.460
X12.920Y64.540
X18.000Y64.540
X23.080Y64.540
X80.920Y21.460
X86.000Y21.460
X91.080Y21.460
X80.920Y26.540
X86.000Y26.540
X91.080Y26.540
T04
X25.500Y64.000
X30.500Y64.000
X25.500Y60.000
X30.500Y60.000
X15.500Y31.000
X20.500Y31.000
X15.500Y23.000
X20.500Y23.000
X6.000Y27.500
X6.000Y32.500
X6.000Y19.500
X6.000Y24.500
X28.000Y9.500
X28.000Y14.500
X31.000Y9.500
X31.000Y14.500
X90.000Y67.500
X90.000Y72.500
X94.000Y67.500
X94.000Y72.500
X82.000Y47.500
X82.000Y52.500
X38.500Y40.000
X41.500Y40.000
X46.500Y40.000
X49.500Y40.000
X54.500Y40.000
X57.500Y40.000
X62.500Y40.000
X65.500Y40.000
X54.500Y28.000
X57.500Y28.000
X62.500Y52.000
X65.500Y52.000
X38.500Y52.000
X41.500Y52.000
X46.500Y52.000
X49.500Y52.000
T05
X70.000Y62.095
X74.000Y62.095
X70.000Y63.365
X74.000Y63.365
X70.000Y64.635
X74.000Y64.635
X70.000Y65.905
X74.000Y65.905
X70.000Y28.095
X74.000Y28.095
X70.000Y29.365
X74.000Y29.365
X70.000Y30.635
X74.000Y30.635
X70.000Y31.905
X74.000Y31.905
X34.000Y6.000
X35.100Y6.000
X36.200Y6.000
X37.300Y6.000
X38.400Y6.000
X39.500Y6.000
X40.600Y6.000
X41.700Y6.000
X42.800Y6.000
X50.000Y6.000
X51.100Y6.000
X52.200Y6.000
X53.300Y6.000
X54.400Y6.000
X55.500Y6.000
X56.600Y6.000
X57.700Y6.000
X58.800Y6.000
X11.000Y28.900
X13.000Y28.900
X12.000Y31.100
X11.000Y20.900
X13.000Y20.900
X12.000Y23.100
M30
