%FSLAX46Y46*%
%MOMM*%
G04 B.Mask - CJ2 Voice Emergency Checklist proto - DEMO ONLY*
%LPD*%
%ADD10R,1.9000X1.9000*%
%ADD11C,1.9000*%
%ADD12R,1.7000X1.7000*%
%ADD13C,1.7000*%
%ADD14C,1.6000*%
%ADD15C,1.4000*%
%ADD16C,1.2000*%
%ADD17C,1.3000*%
D10*
X33000000Y20000000D03*
D11*
X33000000Y22540000D03*
D11*
X33000000Y25080000D03*
D11*
X33000000Y27620000D03*
D11*
X33000000Y30160000D03*
D11*
X33000000Y32700000D03*
D11*
X33000000Y35240000D03*
D11*
X33000000Y37780000D03*
D11*
X33000000Y40320000D03*
D11*
X33000000Y42860000D03*
D11*
X33000000Y45400000D03*
D11*
X33000000Y47940000D03*
D11*
X33000000Y50480000D03*
D11*
X33000000Y53020000D03*
D11*
X33000000Y55560000D03*
D11*
X33000000Y58100000D03*
D11*
X33000000Y60640000D03*
D11*
X33000000Y63180000D03*
D11*
X33000000Y65720000D03*
D11*
X33000000Y68260000D03*
D11*
X33000000Y70800000D03*
D11*
X33000000Y73340000D03*
D10*
X55860000Y20000000D03*
D11*
X55860000Y22540000D03*
D11*
X55860000Y25080000D03*
D11*
X55860000Y27620000D03*
D11*
X55860000Y30160000D03*
D11*
X55860000Y32700000D03*
D11*
X55860000Y35240000D03*
D11*
X55860000Y37780000D03*
D11*
X55860000Y40320000D03*
D11*
X55860000Y42860000D03*
D11*
X55860000Y45400000D03*
D11*
X55860000Y47940000D03*
D11*
X55860000Y50480000D03*
D11*
X55860000Y53020000D03*
D11*
X55860000Y55560000D03*
D11*
X55860000Y58100000D03*
D11*
X55860000Y60640000D03*
D11*
X55860000Y63180000D03*
D11*
X55860000Y65720000D03*
D11*
X55860000Y68260000D03*
D11*
X55860000Y70800000D03*
D11*
X55860000Y73340000D03*
D10*
X6000000Y60000000D03*
D11*
X6000000Y62540000D03*
D11*
X6000000Y65080000D03*
D12*
X12920000Y59460000D03*
D13*
X18000000Y59460000D03*
D13*
X23080000Y59460000D03*
D13*
X12920000Y64540000D03*
D13*
X18000000Y64540000D03*
D13*
X23080000Y64540000D03*
D14*
X25500000Y64000000D03*
D14*
X30500000Y64000000D03*
D14*
X25500000Y60000000D03*
D14*
X30500000Y60000000D03*
D15*
X70000000Y62095000D03*
D15*
X74000000Y62095000D03*
D15*
X70000000Y63365000D03*
D15*
X74000000Y63365000D03*
D15*
X70000000Y64635000D03*
D15*
X74000000Y64635000D03*
D15*
X70000000Y65905000D03*
D15*
X74000000Y65905000D03*
D15*
X70000000Y28095000D03*
D15*
X74000000Y28095000D03*
D15*
X70000000Y29365000D03*
D15*
X74000000Y29365000D03*
D15*
X70000000Y30635000D03*
D15*
X74000000Y30635000D03*
D15*
X70000000Y31905000D03*
D15*
X74000000Y31905000D03*
D12*
X80920000Y21460000D03*
D13*
X86000000Y21460000D03*
D13*
X91080000Y21460000D03*
D13*
X80920000Y26540000D03*
D13*
X86000000Y26540000D03*
D13*
X91080000Y26540000D03*
D10*
X94000000Y14000000D03*
D11*
X94000000Y16540000D03*
D11*
X94000000Y19080000D03*
D16*
X34000000Y6000000D03*
D16*
X35100000Y6000000D03*
D16*
X36200000Y6000000D03*
D16*
X37300000Y6000000D03*
D16*
X38400000Y6000000D03*
D16*
X39500000Y6000000D03*
D16*
X40600000Y6000000D03*
D16*
X41700000Y6000000D03*
D16*
X42800000Y6000000D03*
D16*
X50000000Y6000000D03*
D16*
X51100000Y6000000D03*
D16*
X52200000Y6000000D03*
D16*
X53300000Y6000000D03*
D16*
X54400000Y6000000D03*
D16*
X55500000Y6000000D03*
D16*
X56600000Y6000000D03*
D16*
X57700000Y6000000D03*
D16*
X58800000Y6000000D03*
D17*
X11000000Y28900000D03*
D17*
X13000000Y28900000D03*
D17*
X12000000Y31100000D03*
D17*
X11000000Y20900000D03*
D17*
X13000000Y20900000D03*
D17*
X12000000Y23100000D03*
D14*
X15500000Y31000000D03*
D14*
X20500000Y31000000D03*
D14*
X15500000Y23000000D03*
D14*
X20500000Y23000000D03*
D14*
X6000000Y27500000D03*
D14*
X6000000Y32500000D03*
D14*
X6000000Y19500000D03*
D14*
X6000000Y24500000D03*
D14*
X28000000Y9500000D03*
D14*
X28000000Y14500000D03*
D14*
X31000000Y9500000D03*
D14*
X31000000Y14500000D03*
D10*
X70000000Y72000000D03*
D11*
X72540000Y72000000D03*
D11*
X75080000Y72000000D03*
D11*
X77620000Y72000000D03*
D14*
X90000000Y67500000D03*
D14*
X90000000Y72500000D03*
D14*
X94000000Y67500000D03*
D14*
X94000000Y72500000D03*
D10*
X6000000Y12000000D03*
D11*
X6000000Y14540000D03*
D10*
X60000000Y4000000D03*
D11*
X62540000Y4000000D03*
D11*
X65080000Y4000000D03*
D11*
X67620000Y4000000D03*
D11*
X70160000Y4000000D03*
D11*
X72700000Y4000000D03*
D11*
X75240000Y4000000D03*
D11*
X77780000Y4000000D03*
D11*
X80320000Y4000000D03*
D10*
X90000000Y50000000D03*
D11*
X90000000Y52540000D03*
D14*
X82000000Y47500000D03*
D14*
X82000000Y52500000D03*
D14*
X38500000Y40000000D03*
D14*
X41500000Y40000000D03*
D14*
X46500000Y40000000D03*
D14*
X49500000Y40000000D03*
D14*
X54500000Y40000000D03*
D14*
X57500000Y40000000D03*
D14*
X62500000Y40000000D03*
D14*
X65500000Y40000000D03*
D14*
X54500000Y28000000D03*
D14*
X57500000Y28000000D03*
D14*
X62500000Y52000000D03*
D14*
X65500000Y52000000D03*
D14*
X38500000Y52000000D03*
D14*
X41500000Y52000000D03*
D14*
X46500000Y52000000D03*
D14*
X49500000Y52000000D03*
M02*
