%FSLAX46Y46*%
%MOMM*%
G04 B.Silkscreen - CJ2 Voice Emergency Checklist proto - DEMO ONLY*
%LPD*%
%ADD10C,0.1500*%
D10*
X6700000Y7190000D02*
X6140000Y7400000D01*
D10*
X6140000Y7400000D02*
X6000000Y6700000D01*
D10*
X6000000Y6700000D02*
X6140000Y6000000D01*
D10*
X6140000Y6000000D02*
X6700000Y6140000D01*
D10*
X6700000Y6140000D02*
X6700000Y6700000D01*
D10*
X6700000Y6700000D02*
X6350000Y6700000D01*
D10*
X7050000Y6000000D02*
X7050000Y7400000D01*
D10*
X7050000Y7400000D02*
X7750000Y6000000D01*
D10*
X7750000Y6000000D02*
X7750000Y7400000D01*
D10*
X8100000Y6000000D02*
X8100000Y7400000D01*
D10*
X8100000Y7400000D02*
X8590000Y7190000D01*
D10*
X8590000Y7190000D02*
X8730000Y6700000D01*
D10*
X8730000Y6700000D02*
X8590000Y6210000D01*
D10*
X8590000Y6210000D02*
X8100000Y6000000D01*
D10*
X10200000Y6000000D02*
X10200000Y7400000D01*
D10*
X10200000Y7400000D02*
X10760000Y7190000D01*
D10*
X10760000Y7190000D02*
X10760000Y6840000D01*
D10*
X10760000Y6840000D02*
X10200000Y6700000D01*
D10*
X11250000Y6210000D02*
X11250000Y7190000D01*
D10*
X11250000Y7190000D02*
X11460000Y7400000D01*
D10*
X11460000Y7400000D02*
X11740000Y7400000D01*
D10*
X11740000Y7400000D02*
X11950000Y7190000D01*
D10*
X11950000Y7190000D02*
X11950000Y6210000D01*
D10*
X11950000Y6210000D02*
X11740000Y6000000D01*
D10*
X11740000Y6000000D02*
X11460000Y6000000D01*
D10*
X11460000Y6000000D02*
X11250000Y6210000D01*
D10*
X12300000Y7400000D02*
X12300000Y6210000D01*
D10*
X12300000Y6210000D02*
X12510000Y6000000D01*
D10*
X12510000Y6000000D02*
X12790000Y6000000D01*
D10*
X12790000Y6000000D02*
X13000000Y6210000D01*
D10*
X13000000Y6210000D02*
X13000000Y7400000D01*
D10*
X13350000Y6000000D02*
X13350000Y7400000D01*
D10*
X13350000Y7400000D02*
X13910000Y7190000D01*
D10*
X13910000Y7190000D02*
X13910000Y6840000D01*
D10*
X13910000Y6840000D02*
X13350000Y6700000D01*
D10*
X13560000Y6700000D02*
X14050000Y6000000D01*
D10*
X15450000Y6000000D02*
X16150000Y7400000D01*
D10*
X17550000Y6000000D02*
X17550000Y7400000D01*
D10*
X17550000Y7400000D02*
X18040000Y7120000D01*
D10*
X18040000Y7120000D02*
X17550000Y6700000D01*
D10*
X17550000Y6700000D02*
X18110000Y6420000D01*
D10*
X18110000Y6420000D02*
X17550000Y6000000D01*
D10*
X18600000Y6210000D02*
X18600000Y7190000D01*
D10*
X18600000Y7190000D02*
X18810000Y7400000D01*
D10*
X18810000Y7400000D02*
X19090000Y7400000D01*
D10*
X19090000Y7400000D02*
X19300000Y7190000D01*
D10*
X19300000Y7190000D02*
X19300000Y6210000D01*
D10*
X19300000Y6210000D02*
X19090000Y6000000D01*
D10*
X19090000Y6000000D02*
X18810000Y6000000D01*
D10*
X18810000Y6000000D02*
X18600000Y6210000D01*
D10*
X19650000Y7400000D02*
X20350000Y7400000D01*
D10*
X20000000Y7400000D02*
X20000000Y6000000D01*
D10*
X20700000Y7400000D02*
X21400000Y7400000D01*
D10*
X21050000Y7400000D02*
X21050000Y6000000D01*
D10*
X21750000Y6210000D02*
X21750000Y7190000D01*
D10*
X21750000Y7190000D02*
X21960000Y7400000D01*
D10*
X21960000Y7400000D02*
X22240000Y7400000D01*
D10*
X22240000Y7400000D02*
X22450000Y7190000D01*
D10*
X22450000Y7190000D02*
X22450000Y6210000D01*
D10*
X22450000Y6210000D02*
X22240000Y6000000D01*
D10*
X22240000Y6000000D02*
X21960000Y6000000D01*
D10*
X21960000Y6000000D02*
X21750000Y6210000D01*
D10*
X22800000Y6000000D02*
X22800000Y7400000D01*
D10*
X22800000Y7400000D02*
X23150000Y6700000D01*
D10*
X23150000Y6700000D02*
X23500000Y7400000D01*
D10*
X23500000Y7400000D02*
X23500000Y6000000D01*
M02*
